<svg width="24" height="24" viewBox="0 0 24 24" fill="none" xmlns="http://www.w3.org/2000/svg">
  <path d="M18.896 10.8043C19.5148 10.858 20.0324 10.3404 19.9787 9.7216L19.6521 5.95875C19.5787 5.11217 18.5496 4.73723 17.9488 5.3381L17.2644 6.02248C15.813 4.74682 13.9383 4.0257 11.9872 4.0257C7.58281 4.0257 4 7.6085 4 12.0128C4 16.4172 7.58281 20 11.9872 20C14.4463 20 16.7619 18.8546 18.2645 16.9511C18.655 16.4564 18.4627 15.7517 17.9171 15.4362C17.3719 15.1209 16.6816 15.3172 16.2638 15.7884C15.1906 16.9989 13.6335 17.718 11.9872 17.718C8.84135 17.718 6.28204 15.1586 6.28204 12.0128C6.28204 8.86705 8.84135 6.30774 11.9872 6.30774C13.3324 6.30774 14.6241 6.79039 15.6441 7.64274L14.5125 8.7744C13.9116 9.37527 14.2865 10.4043 15.1331 10.4778L18.896 10.8043Z" fill="white"/>
</svg>
